<?xml version="1.0" encoding="UTF-8" standalone="no"?>
<!-- Created with Inkscape (http://www.inkscape.org/) -->

<svg
   xmlns:dc="http://purl.org/dc/elements/1.1/"
   xmlns:cc="http://creativecommons.org/ns#"
   xmlns:rdf="http://www.w3.org/1999/02/22-rdf-syntax-ns#"
   xmlns:svg="http://www.w3.org/2000/svg"
   xmlns="http://www.w3.org/2000/svg"
   xmlns:sodipodi="http://sodipodi.sourceforge.net/DTD/sodipodi-0.dtd"
   xmlns:inkscape="http://www.inkscape.org/namespaces/inkscape"
   width="1024"
   height="1024"
   id="svg2"
   version="1.1"
   inkscape:version="0.48.2 r9819"
   sodipodi:docname="icon_sunset.svg">
  <defs
     id="defs4" />
  <sodipodi:namedview
     id="base"
     pagecolor="#ffffff"
     bordercolor="#666666"
     borderopacity="1.0"
     inkscape:pageopacity="0.0"
     inkscape:pageshadow="2"
     inkscape:zoom="0.70710675"
     inkscape:cx="652.10727"
     inkscape:cy="794.03631"
     inkscape:document-units="px"
     inkscape:current-layer="layer1"
     showgrid="false"
     inkscape:window-width="1366"
     inkscape:window-height="706"
     inkscape:window-x="-8"
     inkscape:window-y="-8"
     inkscape:window-maximized="1"
     showguides="true"
     inkscape:guide-bbox="true" />
  <metadata
     id="metadata7">
    <rdf:RDF>
      <cc:Work
         rdf:about="">
        <dc:format>image/svg+xml</dc:format>
        <dc:type
           rdf:resource="http://purl.org/dc/dcmitype/StillImage" />
        <dc:title />
      </cc:Work>
    </rdf:RDF>
  </metadata>
  <g
     inkscape:label="Layer 1"
     inkscape:groupmode="layer"
     id="layer1"
     transform="translate(0,-28.3622)">
    <path
       style="fill:#ffffff;fill-opacity:1;fill-rule:evenodd;stroke:none"
       d="m -5.53125,16.863269 0,519.383891 138.35594,0 140.55208,-70.27612 0,70.27612 34.58898,0 c 0.60085,-112.98448 92.21207,-204.23981 205.33779,-204.23981 113.12569,0 204.73687,91.25533 205.33777,204.23981 l 34.589,0 0,-70.27612 140.55206,70.27612 138.35603,0 0,-519.383891 -1037.66965,0 z m 518.83479,137.806901 71.37407,142.7482 -142.74817,0 71.3741,-142.7482 z m -270.67255,112.00243 151.5327,50.5109 -101.0218,101.0218 -50.5109,-151.5327 z m 541.34508,0 -50.5109,151.5327 -101.0218,-101.0218 151.5327,-50.5109 z"
       id="rect2994"
       inkscape:connector-curvature="0" />
  </g>
</svg>
