<?xml version="1.0" encoding="UTF-8" standalone="no"?>
<!-- Created with Inkscape (http://www.inkscape.org/) -->

<svg
   xmlns:osb="http://www.openswatchbook.org/uri/2009/osb"
   xmlns:dc="http://purl.org/dc/elements/1.1/"
   xmlns:cc="http://creativecommons.org/ns#"
   xmlns:rdf="http://www.w3.org/1999/02/22-rdf-syntax-ns#"
   xmlns:svg="http://www.w3.org/2000/svg"
   xmlns="http://www.w3.org/2000/svg"
   xmlns:sodipodi="http://sodipodi.sourceforge.net/DTD/sodipodi-0.dtd"
   xmlns:inkscape="http://www.inkscape.org/namespaces/inkscape"
   width="1024"
   height="1024"
   id="svg2"
   version="1.1"
   inkscape:version="0.48.2 r9819"
   sodipodi:docname="icon_wind_speed.svg">
  <defs
     id="defs4">
    <linearGradient
       id="linearGradient3836"
       osb:paint="solid">
      <stop
         style="stop-color:#000000;stop-opacity:1;"
         offset="0"
         id="stop3838" />
    </linearGradient>
  </defs>
  <sodipodi:namedview
     id="base"
     pagecolor="#ffffff"
     bordercolor="#666666"
     borderopacity="1.0"
     inkscape:pageopacity="0.0"
     inkscape:pageshadow="2"
     inkscape:zoom="0.35355339"
     inkscape:cx="699.93428"
     inkscape:cy="777.54258"
     inkscape:document-units="px"
     inkscape:current-layer="layer1"
     showgrid="false"
     inkscape:window-width="1366"
     inkscape:window-height="706"
     inkscape:window-x="-8"
     inkscape:window-y="-8"
     inkscape:window-maximized="1"
     inkscape:snap-global="false"
     inkscape:snap-bbox="true"
     inkscape:snap-bbox-edge-midpoints="true"
     inkscape:object-nodes="true"
     inkscape:object-paths="false"
     inkscape:snap-intersection-paths="true"
     inkscape:snap-smooth-nodes="true"
     inkscape:snap-midpoints="true"
     inkscape:snap-object-midpoints="true"
     inkscape:snap-center="true"
     inkscape:snap-page="true" />
  <metadata
     id="metadata7">
    <rdf:RDF>
      <cc:Work
         rdf:about="">
        <dc:format>image/svg+xml</dc:format>
        <dc:type
           rdf:resource="http://purl.org/dc/dcmitype/StillImage" />
        <dc:title />
      </cc:Work>
    </rdf:RDF>
  </metadata>
  <g
     inkscape:label="Layer 1"
     inkscape:groupmode="layer"
     id="layer1"
     transform="translate(0,-28.3622)">
    <path
       style="fill:#ffffff;fill-opacity:1;fill-rule:nonzero;stroke:none"
       d="m 172.72577,80.590458 50.31795,-26.264934 50.31799,26.264934 0,948.547242 -100.63594,0 z"
       id="rect2994"
       inkscape:connector-curvature="0"
       sodipodi:nodetypes="cccccc" />
    <path
       style="fill:#ffffff;fill-opacity:1;fill-rule:evenodd;stroke:none"
       d="m 267.75219,127.34992 0,303.40674 74.26075,-11.66875 0,-280.06924 -74.26075,-11.66875 z m 147.46063,23.33991 0,256.72934 74.26072,-11.67117 0,-233.38942 -74.26072,-11.66875 z m 147.46059,24.39939 0,208.99004 68.95641,-11.66875 0,-185.65255 -68.95641,-11.66874 z m 142.15629,23.33749 0,162.31264 70.01726,-11.66875 0,-138.97273 -70.01726,-11.67116 z m 143.21714,23.33991 0,115.63524 36.06954,-5.30464 c -4.68727,0 -8.48693,-24.0422 -8.48693,-53.04393 0,-29.00172 3.79966,-51.98203 8.48693,-51.98203 l -36.06954,-5.30464 z"
       id="rect2988"
       inkscape:connector-curvature="0" />
    <path
       sodipodi:type="arc"
       style="fill:#ffffff;fill-opacity:0.60317461000000006;fill-rule:evenodd;stroke:none"
       id="path3785"
       sodipodi:cx="36.734375"
       sodipodi:cy="16.406252"
       sodipodi:rx="0.625"
       sodipodi:ry="1.25"
       d="m 37.359375,16.406252 c 0,0.690356 -0.279822,1.25 -0.625,1.25 -0.345178,0 -0.625,-0.559644 -0.625,-1.25 0,-0.690356 0.279822,-1.25 0.625,-1.25 0.345178,0 0.625,0.559644 0.625,1.25 z"
       transform="matrix(14.852148,0,0,42.010362,338.53196,-409.64969)" />
  </g>
</svg>
