<?xml version="1.0" encoding="UTF-8" standalone="no"?>
<!-- Created with Inkscape (http://www.inkscape.org/) -->

<svg
   xmlns:dc="http://purl.org/dc/elements/1.1/"
   xmlns:cc="http://creativecommons.org/ns#"
   xmlns:rdf="http://www.w3.org/1999/02/22-rdf-syntax-ns#"
   xmlns:svg="http://www.w3.org/2000/svg"
   xmlns="http://www.w3.org/2000/svg"
   xmlns:sodipodi="http://sodipodi.sourceforge.net/DTD/sodipodi-0.dtd"
   xmlns:inkscape="http://www.inkscape.org/namespaces/inkscape"
   width="1024"
   height="1024"
   id="svg2"
   version="1.1"
   inkscape:version="0.48.4 r9939"
   sodipodi:docname="icon_temp_min.svg">
  <defs
     id="defs4" />
  <sodipodi:namedview
     id="base"
     pagecolor="#ffffff"
     bordercolor="#666666"
     borderopacity="1.0"
     inkscape:pageopacity="0.0"
     inkscape:pageshadow="2"
     inkscape:zoom="0.24999999"
     inkscape:cx="349.64084"
     inkscape:cy="844.59854"
     inkscape:document-units="px"
     inkscape:current-layer="layer1"
     showgrid="false"
     inkscape:window-width="1303"
     inkscape:window-height="744"
     inkscape:window-x="63"
     inkscape:window-y="24"
     inkscape:window-maximized="1"
     showguides="true"
     inkscape:guide-bbox="true" />
  <metadata
     id="metadata7">
    <rdf:RDF>
      <cc:Work
         rdf:about="">
        <dc:format>image/svg+xml</dc:format>
        <dc:type
           rdf:resource="http://purl.org/dc/dcmitype/StillImage" />
        <dc:title></dc:title>
      </cc:Work>
    </rdf:RDF>
  </metadata>
  <g
     inkscape:label="Layer 1"
     inkscape:groupmode="layer"
     id="layer1"
     transform="translate(0,-28.3622)">
    <rect
       y="156.83035"
       x="608.8446"
       height="67.576782"
       width="270.30713"
       id="rect3022"
       style="fill:#ffffff;fill-opacity:1;fill-rule:evenodd;stroke:none" />
    <rect
       style="fill:#ffffff;fill-opacity:1;fill-rule:evenodd;stroke:none"
       id="rect3024"
       width="270.30713"
       height="67.576782"
       x="55.466957"
       y="-777.78656"
       transform="matrix(0,1,-1,0,0,0)" />
    <g
       id="layer1-9"
       inkscape:label="Layer 1"
       transform="matrix(21.538931,0,0,21.538931,-214.85952,-21616.016)">
      <path
         id="path2984-4"
         transform="translate(0,1004.3622)"
         d="m 22.3125,30.96875 c -3.802406,0.778085 -6.65625,4.155072 -6.65625,8.1875 0,4.608489 3.735261,8.34375 8.34375,8.34375 4.608489,0 8.34375,-3.735261 8.34375,-8.34375 0,-4.042867 -2.870374,-7.420839 -6.6875,-8.1875 l 0,2.15625 c 2.654773,0.724675 4.59375,3.146709 4.59375,6.03125 0,3.456367 -2.793633,6.25 -6.25,6.25 -3.456367,0 -6.25,-2.793633 -6.25,-6.25 0,-2.884541 1.938977,-5.306575 4.59375,-6.03125 l 0,-2.15625 c -0.0099,0.002 -0.02141,-0.002 -0.03125,0 z"
         style="fill:#ffffff;fill-opacity:1;fill-rule:evenodd;stroke:none"
         inkscape:connector-curvature="0" />
      <path
         id="path2986-8"
         transform="translate(0,1004.3622)"
         d="m 22.34375,8.96875 0,24.15625 C 19.688977,33.849675 17.75,36.271709 17.75,39.15625 c 0,3.456367 2.793633,6.25 6.25,6.25 3.456367,0 6.25,-2.793633 6.25,-6.25 0,-2.884541 -1.938977,-5.306575 -4.59375,-6.03125 l 0,-24.15625 -3.3125,0 z"
         style="fill:#ffffff;fill-opacity:0;fill-rule:evenodd;stroke:none"
         inkscape:connector-curvature="0" />
      <path
         id="rect2994-8"
         transform="translate(0,1004.3622)"
         d="m 20.875,1.34375 0,31.34375 1.46875,0 0,-30.1875 3.3125,0 0,30.1875 1.46875,0 0,-31.34375 -6.25,0 z"
         style="fill:#ffffff;fill-opacity:1;fill-rule:evenodd;stroke:none"
         inkscape:connector-curvature="0" />
      <rect
         y="1006.7214"
         x="22.248152"
         height="6.5985622"
         width="3.5036938"
         id="rect3002-2"
         style="fill:#ffffff;fill-opacity:0.72340423;fill-rule:evenodd;stroke:none" />
    </g>
  </g>
</svg>
