<?xml version="1.0" encoding="UTF-8" standalone="no"?>
<!-- Created with Inkscape (http://www.inkscape.org/) -->

<svg
   xmlns:dc="http://purl.org/dc/elements/1.1/"
   xmlns:cc="http://creativecommons.org/ns#"
   xmlns:rdf="http://www.w3.org/1999/02/22-rdf-syntax-ns#"
   xmlns:svg="http://www.w3.org/2000/svg"
   xmlns="http://www.w3.org/2000/svg"
   xmlns:sodipodi="http://sodipodi.sourceforge.net/DTD/sodipodi-0.dtd"
   xmlns:inkscape="http://www.inkscape.org/namespaces/inkscape"
   width="1024"
   height="1024"
   id="svg2"
   version="1.1"
   inkscape:version="0.48.2 r9819"
   sodipodi:docname="icon_wind_orientation.svg">
  <defs
     id="defs4" />
  <sodipodi:namedview
     id="base"
     pagecolor="#ffffff"
     bordercolor="#666666"
     borderopacity="1.0"
     inkscape:pageopacity="0.0"
     inkscape:pageshadow="2"
     inkscape:zoom="0.17677669"
     inkscape:cx="657.80543"
     inkscape:cy="726.46254"
     inkscape:document-units="px"
     inkscape:current-layer="layer1"
     showgrid="false"
     inkscape:window-width="1366"
     inkscape:window-height="706"
     inkscape:window-x="-8"
     inkscape:window-y="-8"
     inkscape:window-maximized="1"
     showguides="true"
     inkscape:guide-bbox="true"
     inkscape:snap-bbox="true"
     inkscape:object-paths="true"
     inkscape:snap-global="false" />
  <metadata
     id="metadata7">
    <rdf:RDF>
      <cc:Work
         rdf:about="">
        <dc:format>image/svg+xml</dc:format>
        <dc:type
           rdf:resource="http://purl.org/dc/dcmitype/StillImage" />
        <dc:title />
      </cc:Work>
    </rdf:RDF>
  </metadata>
  <g
     inkscape:label="Layer 1"
     inkscape:groupmode="layer"
     id="layer1"
     transform="translate(0,-28.3622)">
    <path
       style="fill:#ffffff;fill-opacity:1;fill-rule:evenodd;stroke:none"
       d="m 511.9037,38.258301 c -277.45894,0 -502.2001952,224.741249 -502.2001952,502.200199 0,277.45894 224.7412552,502.2003 502.2001952,502.2003 277.45895,0 502.2002,-224.74136 502.2002,-502.2003 0,-277.45895 -224.74125,-502.200199 -502.2002,-502.200199 z m 0,39.595285 c 255.31883,0 462.60492,207.286084 462.60492,462.604914 0,255.31882 -207.28609,462.6049 -462.60492,462.6049 -255.31882,0 -462.60491,-207.28608 -462.60491,-462.6049 0,-255.31883 207.28609,-462.604914 462.60491,-462.604914 z"
       id="path3694"
       inkscape:connector-curvature="0" />
    <path
       style="fill:#ffffff;fill-opacity:1;stroke:#ffffff;stroke-width:30;stroke-linecap:round;stroke-linejoin:round;stroke-miterlimit:4;stroke-opacity:1;stroke-dasharray:none"
       d="m 510.60461,103.67098 -97.09445,438.08223 67.40953,0 c -0.0167,-0.40123 0,-0.82358 0,-1.24593 0,-16.99324 13.9601,-30.98146 30.92179,-30.98146 16.96171,0 30.9218,13.98822 30.9218,30.98146 0,0.42235 0.0167,0.82358 0,1.24593 l 65.55421,0 -97.71288,-438.08223 z"
       id="rect3702"
       inkscape:connector-curvature="0" />
    <path
       style="fill:none;stroke:#ffffff;stroke-width:30;stroke-linecap:round;stroke-linejoin:round;stroke-miterlimit:4;stroke-opacity:1;stroke-dasharray:none"
       d="m 413.51016,541.76377 97.0864,437.24176 97.72093,-437.24176 -65.35881,0 c -0.6576,16.41251 -14.55115,29.86857 -31.09303,29.86857 -16.54185,0 -30.43547,-13.45606 -31.09302,-29.86857 z"
       id="path3705"
       inkscape:connector-curvature="0"
       sodipodi:nodetypes="ccccscc" />
    <text
       xml:space="preserve"
       style="font-size:329.63943481px;font-style:normal;font-weight:normal;line-height:125%;letter-spacing:0px;word-spacing:0px;fill:#ffffff;fill-opacity:1;stroke:none;font-family:Sans"
       x="588.72894"
       y="424.46857"
       id="text3760"
       sodipodi:linespacing="125%"
       transform="scale(0.99979845,1.0002016)"><tspan
         sodipodi:role="line"
         id="tspan3762"
         x="588.72894"
         y="424.46857">N</tspan></text>
    <text
       transform="scale(0.99979845,1.0002016)"
       sodipodi:linespacing="125%"
       id="text3778"
       y="883.68109"
       x="192.69626"
       style="font-size:329.63943481px;font-style:normal;font-weight:normal;line-height:125%;letter-spacing:0px;word-spacing:0px;fill:#ffffff;fill-opacity:1;stroke:none;font-family:Sans"
       xml:space="preserve"><tspan
         y="883.68109"
         x="192.69626"
         id="tspan3780"
         sodipodi:role="line">S</tspan></text>
  </g>
</svg>
