<?xml version="1.0" encoding="UTF-8" standalone="no"?>
<!-- Created with Inkscape (http://www.inkscape.org/) -->

<svg
   xmlns:dc="http://purl.org/dc/elements/1.1/"
   xmlns:cc="http://creativecommons.org/ns#"
   xmlns:rdf="http://www.w3.org/1999/02/22-rdf-syntax-ns#"
   xmlns:svg="http://www.w3.org/2000/svg"
   xmlns="http://www.w3.org/2000/svg"
   xmlns:sodipodi="http://sodipodi.sourceforge.net/DTD/sodipodi-0.dtd"
   xmlns:inkscape="http://www.inkscape.org/namespaces/inkscape"
   width="1024"
   height="1024"
   id="svg2"
   version="1.1"
   inkscape:version="0.48.2 r9819"
   sodipodi:docname="icon_humidity.svg">
  <defs
     id="defs4" />
  <sodipodi:namedview
     id="base"
     pagecolor="#ffffff"
     bordercolor="#666666"
     borderopacity="1.0"
     inkscape:pageopacity="0.0"
     inkscape:pageshadow="2"
     inkscape:zoom="0.25000001"
     inkscape:cx="262.9112"
     inkscape:cy="450.88926"
     inkscape:document-units="px"
     inkscape:current-layer="layer1"
     showgrid="false"
     inkscape:window-width="1366"
     inkscape:window-height="706"
     inkscape:window-x="-8"
     inkscape:window-y="-8"
     inkscape:window-maximized="1" />
  <metadata
     id="metadata7">
    <rdf:RDF>
      <cc:Work
         rdf:about="">
        <dc:format>image/svg+xml</dc:format>
        <dc:type
           rdf:resource="http://purl.org/dc/dcmitype/StillImage" />
        <dc:title />
      </cc:Work>
    </rdf:RDF>
  </metadata>
  <g
     inkscape:label="Layer 1"
     inkscape:groupmode="layer"
     id="layer1"
     transform="translate(0,-28.3622)">
    <path
       style="fill:#ffffff;fill-opacity:1;fill-rule:nonzero;stroke:none"
       d="m 696.28594,159.98944 c -43.88541,32.73258 -99.2347,70.69482 -119.77578,79.99292 -21.0402,9.52388 -42.36457,20.35734 -54.82484,41.94036 -24.92055,43.16393 -10.13208,98.35688 33.03043,123.27725 43.16243,24.91608 98.35419,10.12814 123.27475,-33.03363 12.46027,-21.58088 11.18062,-45.46694 8.91027,-68.44985 -2.21824,-22.44101 2.98633,-89.36197 9.38517,-143.72705 z"
       id="path2983"
       inkscape:connector-curvature="0" />
    <path
       inkscape:connector-curvature="0"
       id="path3764"
       d="m 1015.5555,525.01946 c -43.88534,32.73044 -99.23468,70.69482 -119.77571,79.99291 -21.04025,9.52604 -42.36464,20.35734 -54.82493,41.93822 -24.92055,43.16608 -10.13203,98.35688 33.03044,123.2794 43.16248,24.91823 98.35423,10.13029 123.27477,-33.03363 12.46033,-21.58088 11.18063,-45.46694 8.91033,-68.44985 -2.2183,-22.43887 2.9858,-89.36197 9.3851,-143.72705 z"
       style="fill:#ffffff;fill-opacity:1;fill-rule:nonzero;stroke:none" />
    <path
       inkscape:connector-curvature="0"
       id="path3766"
       d="m 191.24551,311.99318 c -43.8854,32.73043 -99.23469,70.69481 -119.775773,79.99076 -21.0402,9.52389 -42.364557,20.35949 -54.824836,41.94037 -24.9205582,43.16607 -10.1320731,98.35688 33.03043,123.27725 43.162421,24.91607 98.354179,10.12814 123.274729,-33.03149 12.46029,-21.58302 11.18064,-45.46694 8.9103,-68.44985 -2.21826,-22.44317 2.98631,-89.36197 9.38515,-143.72704 z"
       style="fill:#ffffff;fill-opacity:1;fill-rule:nonzero;stroke:none" />
    <path
       style="fill:#ffffff;fill-opacity:1;fill-rule:nonzero;stroke:none"
       d="m 510.51504,677.0232 c -43.88531,32.73043 -99.23464,70.69266 -119.77569,79.99076 -21.04024,9.52818 -42.36463,20.35949 -54.82493,41.94037 -24.92054,43.16391 -10.13202,98.35686 33.03045,123.27727 43.16248,24.92031 98.35424,10.13242 123.2748,-33.03361 12.46029,-21.58092 11.1806,-45.46698 8.91026,-68.44775 -2.21828,-22.43886 2.98591,-89.36197 9.38511,-143.72704 z"
       id="path3768"
       inkscape:connector-curvature="0" />
  </g>
</svg>
