<?xml version="1.0" encoding="UTF-8" standalone="no"?>
<!-- Created with Inkscape (http://www.inkscape.org/) -->

<svg
   xmlns:dc="http://purl.org/dc/elements/1.1/"
   xmlns:cc="http://creativecommons.org/ns#"
   xmlns:rdf="http://www.w3.org/1999/02/22-rdf-syntax-ns#"
   xmlns:svg="http://www.w3.org/2000/svg"
   xmlns="http://www.w3.org/2000/svg"
   xmlns:sodipodi="http://sodipodi.sourceforge.net/DTD/sodipodi-0.dtd"
   xmlns:inkscape="http://www.inkscape.org/namespaces/inkscape"
   width="1024"
   height="1024"
   id="svg2"
   version="1.1"
   inkscape:version="0.48.2 r9819"
   sodipodi:docname="icon_pressure.svg">
  <defs
     id="defs4" />
  <sodipodi:namedview
     id="base"
     pagecolor="#ffffff"
     bordercolor="#666666"
     borderopacity="1.0"
     inkscape:pageopacity="0.0"
     inkscape:pageshadow="2"
     inkscape:zoom="0.5"
     inkscape:cx="702.56994"
     inkscape:cy="789.86027"
     inkscape:document-units="px"
     inkscape:current-layer="layer1"
     showgrid="false"
     inkscape:window-width="1366"
     inkscape:window-height="706"
     inkscape:window-x="-8"
     inkscape:window-y="-8"
     inkscape:window-maximized="1"
     showguides="true"
     inkscape:guide-bbox="true"
     inkscape:snap-bbox="true"
     inkscape:object-paths="true"
     inkscape:snap-global="false"
     inkscape:snap-intersection-paths="false"
     inkscape:object-nodes="true"
     inkscape:snap-smooth-nodes="true"
     inkscape:snap-midpoints="false"
     inkscape:snap-object-midpoints="false"
     inkscape:snap-center="false" />
  <metadata
     id="metadata7">
    <rdf:RDF>
      <cc:Work
         rdf:about="">
        <dc:format>image/svg+xml</dc:format>
        <dc:type
           rdf:resource="http://purl.org/dc/dcmitype/StillImage" />
        <dc:title />
      </cc:Work>
    </rdf:RDF>
  </metadata>
  <g
     inkscape:label="Layer 1"
     inkscape:groupmode="layer"
     id="layer1"
     transform="translate(0,-28.3622)">
    <g
       transform="matrix(45.704655,0,0,45.704655,-539.09948,-680.8623)"
       style="font-size:10px;font-style:normal;font-weight:normal;line-height:125%;letter-spacing:0px;word-spacing:0px;fill:#ffffff;fill-opacity:1;stroke:none;font-family:Sans"
       id="flowRoot2992">
      <path
         inkscape:connector-curvature="0"
         d="m 14.78418,29.855735 0,-7.158203 0.878906,0 0,2.568359 c 0.410154,-0.475255 0.927732,-0.712885 1.552734,-0.712891 0.384111,6e-6 0.71777,0.07569 1.000977,0.227051 0.283199,0.151372 0.485835,0.360519 0.60791,0.627442 0.122066,0.266931 0.183101,0.6543 0.183105,1.162109 l 0,3.286133 -0.878906,0 0,-3.286133 c -4e-6,-0.439449 -0.09522,-0.759273 -0.285644,-0.959473 -0.190433,-0.200191 -0.459802,-0.300288 -0.808106,-0.300293 -0.260419,5e-6 -0.505373,0.06755 -0.734863,0.202637 -0.229494,0.135095 -0.393068,0.318201 -0.490723,0.549316 -0.09766,0.231124 -0.146486,0.550134 -0.146484,0.957032 l 0,2.836914 z"
         style="fill:#ffffff"
         id="path2993" />
      <path
         inkscape:connector-curvature="0"
         d="m 20.462891,29.855735 0,-7.158203 2.700195,0 c 0.475256,7e-6 0.838212,0.02279 1.088867,0.06836 0.351558,0.0586 0.646154,0.170092 0.883789,0.334473 0.237625,0.164394 0.428868,0.3947 0.573731,0.690918 0.14485,0.296229 0.217279,0.62175 0.217285,0.976562 -6e-6,0.608729 -0.193691,1.123865 -0.581055,1.54541 -0.387375,0.421553 -1.087244,0.632327 -2.099609,0.632325 l -1.835938,0 0,2.910156 z m 0.947265,-3.754883 1.850586,0 c 0.611975,4e-6 1.046545,-0.113928 1.303711,-0.341797 0.257156,-0.22786 0.385737,-0.548498 0.385742,-0.961914 -5e-6,-0.299474 -0.07569,-0.555821 -0.22705,-0.769043 -0.151373,-0.21321 -0.350754,-0.353998 -0.598145,-0.422363 -0.159509,-0.04231 -0.454106,-0.06347 -0.883789,-0.06348 l -1.831055,0 z"
         style="fill:#ffffff"
         id="path2995" />
      <path
         inkscape:connector-curvature="0"
         d="m 30.414062,29.216086 c -0.325524,0.276693 -0.638838,0.472006 -0.939941,0.585938 -0.301109,0.113932 -0.624189,0.170898 -0.969238,0.170898 -0.569663,0 -1.007488,-0.13916 -1.313477,-0.41748 -0.30599,-0.27832 -0.458984,-0.633951 -0.458984,-1.066895 0,-0.253904 0.05778,-0.485838 0.17334,-0.695801 0.115559,-0.209958 0.266926,-0.378415 0.454101,-0.505371 0.187174,-0.12695 0.397948,-0.222979 0.632324,-0.288086 0.172525,-0.04557 0.432941,-0.08952 0.78125,-0.131835 0.709633,-0.08463 1.232093,-0.185544 1.567383,-0.302735 0.0033,-0.120439 0.0049,-0.196936 0.0049,-0.229492 -4e-6,-0.358069 -0.08301,-0.610347 -0.249023,-0.756836 -0.224613,-0.198563 -0.558272,-0.297847 -1.000977,-0.297852 -0.413414,5e-6 -0.718589,0.07243 -0.915527,0.217286 -0.196942,0.144861 -0.342612,0.401208 -0.437012,0.769043 L 26.883789,26.14968 c 0.07812,-0.367834 0.206705,-0.664872 0.385742,-0.891113 0.179036,-0.226232 0.437824,-0.400386 0.776367,-0.522461 0.33854,-0.122065 0.730792,-0.1831 1.176758,-0.183106 0.442705,6e-6 0.802405,0.05209 1.079102,0.15625 0.276688,0.104172 0.480139,0.235194 0.610351,0.393067 0.130204,0.157882 0.22135,0.357263 0.273438,0.598144 0.02929,0.149744 0.04394,0.419926 0.04395,0.810547 l 0,1.171875 c -5e-6,0.817059 0.01871,1.333823 0.05615,1.550293 0.03743,0.216472 0.111485,0.423991 0.222167,0.622559 l -0.917968,0 C 30.498694,29.673443 30.4401,29.460227 30.414062,29.216086 z m -0.07324,-1.96289 c -0.319014,0.130211 -0.797529,0.240887 -1.435547,0.332031 -0.36133,0.05209 -0.616863,0.110679 -0.766601,0.175781 -0.149741,0.06511 -0.265301,0.160321 -0.34668,0.285645 -0.08138,0.125327 -0.122071,0.264487 -0.12207,0.41748 -1e-6,0.234376 0.0887,0.429689 0.266113,0.585938 0.177407,0.15625 0.43701,0.234375 0.778809,0.234375 0.338539,0 0.639645,-0.07406 0.90332,-0.222168 0.263668,-0.148111 0.457353,-0.350748 0.581055,-0.60791 0.0944,-0.198567 0.141597,-0.491535 0.141601,-0.878907 z"
         style="fill:#ffffff"
         id="path2997" />
    </g>
    <path
       style="fill:#ffffff;fill-opacity:1;fill-rule:evenodd;stroke:none"
       d="m 511.70791,33.332125 c -280.21808,0 -507.192285,226.972115 -507.192285,507.191205 0,280.2191 226.974205,507.19337 507.192285,507.19337 280.21808,0 507.19229,-226.97427 507.19229,-507.19337 0,-280.21909 -226.97421,-507.191205 -507.19229,-507.191205 z m 0,40.413728 c 257.8578,0 466.77856,208.920657 466.77856,466.777477 0,257.85683 -208.92076,466.77967 -466.77856,466.77967 -257.8578,0 -466.778555,-208.92284 -466.778555,-466.77967 0,-257.85682 208.920755,-466.777477 466.778555,-466.777477 z"
       id="path3694"
       inkscape:connector-curvature="0"
       sodipodi:nodetypes="ssssssssss" />
    <path
       transform="matrix(52.632841,0,0,-52.632841,-543.15326,1522.7429)"
       d="m 29.25,18.625 a 9.125,9.125 0 1 1 -18.25,0 9.125,9.125 0 1 1 18.25,0 z"
       sodipodi:ry="9.125"
       sodipodi:rx="9.125"
       sodipodi:cy="18.625"
       sodipodi:cx="20.125"
       id="path2990"
       style="fill:#ffffff;fill-opacity:0;fill-rule:evenodd;stroke:none"
       sodipodi:type="arc" />
  </g>
</svg>
