<?xml version="1.0" encoding="UTF-8" standalone="no"?>
<!-- Created with Inkscape (http://www.inkscape.org/) -->

<svg
   xmlns:dc="http://purl.org/dc/elements/1.1/"
   xmlns:cc="http://creativecommons.org/ns#"
   xmlns:rdf="http://www.w3.org/1999/02/22-rdf-syntax-ns#"
   xmlns:svg="http://www.w3.org/2000/svg"
   xmlns="http://www.w3.org/2000/svg"
   xmlns:sodipodi="http://sodipodi.sourceforge.net/DTD/sodipodi-0.dtd"
   xmlns:inkscape="http://www.inkscape.org/namespaces/inkscape"
   width="1024"
   height="1024"
   id="svg2"
   version="1.1"
   inkscape:version="0.48.2 r9819"
   sodipodi:docname="icon_weather_rainy.svg">
  <defs
     id="defs4" />
  <sodipodi:namedview
     id="base"
     pagecolor="#ffffff"
     bordercolor="#666666"
     borderopacity="1.0"
     inkscape:pageopacity="0.0"
     inkscape:pageshadow="2"
     inkscape:zoom="0.35355341"
     inkscape:cx="816.72521"
     inkscape:cy="515.11388"
     inkscape:document-units="px"
     inkscape:current-layer="layer1"
     showgrid="false"
     inkscape:window-width="1366"
     inkscape:window-height="706"
     inkscape:window-x="-8"
     inkscape:window-y="-8"
     inkscape:window-maximized="1"
     showguides="true"
     inkscape:guide-bbox="true">
    <inkscape:grid
       type="xygrid"
       id="grid3036"
       empspacing="5"
       visible="true"
       enabled="true"
       snapvisiblegridlinesonly="true" />
  </sodipodi:namedview>
  <metadata
     id="metadata7">
    <rdf:RDF>
      <cc:Work
         rdf:about="">
        <dc:format>image/svg+xml</dc:format>
        <dc:type
           rdf:resource="http://purl.org/dc/dcmitype/StillImage" />
        <dc:title />
      </cc:Work>
    </rdf:RDF>
  </metadata>
  <g
     inkscape:label="Layer 1"
     inkscape:groupmode="layer"
     id="layer1"
     transform="translate(0,-28.36)">
    <path
       style="fill:#ffffff;fill-opacity:1;fill-rule:nonzero;stroke:none"
       d="m 796.33304,577.99136 c 91.65674,0 166.40735,-74.75345 166.40735,-166.41669 0,-77.70963 -53.88995,-142.58533 -126.00789,-160.63644 -4.93815,-35.90296 -17.97269,-71.32515 -40.39946,-102.9292 C 749.84398,82.507444 675.75236,48.165949 601.0689,49.894178 556.25883,50.933714 510.51617,64.322069 471.2134,92.214114 415.3763,131.84858 382.50739,191.754 375.0242,254.78452 341.33965,223.80418 296.46724,204.27174 247.09247,204.76335 144.03723,205.80289 61.389853,290.23919 62.409125,393.3005 c 1.0192,103.05915 85.475625,185.70874 188.530945,184.69086"
       id="path5318"
       inkscape:connector-curvature="0"
       sodipodi:nodetypes="cscssccssc">
		<animateTransform id="cloud_anim" attributeName="transform"
			type="translate"
			from="0 0"
			to="1024 0"
			begin="5s"
			dur="15s"
			repeatCount="0"
		    calcMode="spline"
		    keySplines="0.5, 0, 0, 0"
		/>
		<animateTransform attributeName="transform"
			type="translate"
			from="-1024 0"
			to="1024 0"
			begin="cloud_anim.end"
			dur="30s"
			repeatCount="indefinite"
		/>
	</path>
    <path
       inkscape:connector-curvature="0"
       id="path3034"
       d="m 318.77245,666.96696 c -24.79646,18.49291 -56.07033,39.93984 -67.67662,45.19599 -11.88828,5.38176 -23.93715,11.50203 -30.97756,23.69925 -14.0808,24.38578 -5.7249,55.56969 18.66313,69.65107 24.38797,14.07921 55.57281,5.7261 69.6536,-18.66184 7.04043,-12.19722 6.31739,-25.69169 5.03456,-38.67723 -1.25329,-12.68017 1.6873,-50.49328 5.30289,-81.20724 z"
       style="fill:#ffffff;fill-opacity:1;fill-rule:nonzero;stroke:none">
		<animateTransform id="first_drop_anim" attributeName="transform"
			type="translate"
			from="0 0"
			to="1024 0"
			begin="5s"
			dur="15s"
			repeatCount="0"
		    calcMode="spline"
		    keySplines="0.5, 0, 0, 0"
			additive="sum"
		/>
		<animateTransform attributeName="transform"
			type="translate"
			from="-1024 0"
			to="1024 0"
			begin="first_drop_anim.end"
			dur="30s"
			repeatCount="indefinite"
			additive="sum"
		/>
		<animateTransform attributeName="transform"
			type="translate"
			from="150 -300"
			to="-300 600"
			dur="2728ms"
			repeatCount="indefinite"
			additive="sum"
		/>
	</path>
    <path
       style="fill:#ffffff;fill-opacity:1;fill-rule:nonzero;stroke:none"
       d="m 601.4712,883.01066 c -24.79641,18.49507 -56.07033,39.942 -67.67659,45.19815 -11.88831,5.3796 -23.93716,11.49987 -30.97754,23.69709 -14.08084,24.38794 -5.72492,55.5719 18.66311,69.6511 24.38799,14.0814 55.5728,5.7261 69.65362,-18.6619 7.04041,-12.19722 6.31737,-25.69167 5.03456,-38.6772 -1.25329,-12.68017 1.6873,-50.49329 5.30284,-81.20724 z"
       id="path3038"
       inkscape:connector-curvature="0">
		<animateTransform id="second_drop_anim" attributeName="transform"
			type="translate"
			from="0 0"
			to="1024 0"
			begin="5s"
			dur="15s"
			repeatCount="0"
		    calcMode="spline"
		    keySplines="0.5, 0, 0, 0"
			additive="sum"
		/>
		<animateTransform attributeName="transform"
			type="translate"
			from="-1024 0"
			to="1024 0"
			begin="second_drop_anim.end"
			dur="30s"
			repeatCount="indefinite"
			additive="sum"
		/>
		<animateTransform attributeName="transform"
			type="translate"
			from="300 -600"
			to="-300 600"
			dur="2079ms"
			repeatCount="indefinite"
			additive="sum"
		/>
	</path>
  </g>
</svg>
