<?xml version="1.0" encoding="UTF-8" standalone="no"?>
<!-- Created with Inkscape (http://www.inkscape.org/) -->

<svg
   xmlns:dc="http://purl.org/dc/elements/1.1/"
   xmlns:cc="http://creativecommons.org/ns#"
   xmlns:rdf="http://www.w3.org/1999/02/22-rdf-syntax-ns#"
   xmlns:svg="http://www.w3.org/2000/svg"
   xmlns="http://www.w3.org/2000/svg"
   xmlns:sodipodi="http://sodipodi.sourceforge.net/DTD/sodipodi-0.dtd"
   xmlns:inkscape="http://www.inkscape.org/namespaces/inkscape"
   width="1024"
   height="1024"
   id="svg2"
   version="1.1"
   inkscape:version="0.48.2 r9819"
   sodipodi:docname="icon_weather_rain.svg">
  <defs
     id="defs4" />
  <sodipodi:namedview
     id="base"
     pagecolor="#ffffff"
     bordercolor="#666666"
     borderopacity="1.0"
     inkscape:pageopacity="0.0"
     inkscape:pageshadow="2"
     inkscape:zoom="0.25000001"
     inkscape:cx="815.37408"
     inkscape:cy="481.58855"
     inkscape:document-units="px"
     inkscape:current-layer="layer1"
     showgrid="false"
     inkscape:window-width="1366"
     inkscape:window-height="706"
     inkscape:window-x="-8"
     inkscape:window-y="-8"
     inkscape:window-maximized="1"
     showguides="true"
     inkscape:guide-bbox="true">
    <inkscape:grid
       type="xygrid"
       id="grid3036"
       empspacing="5"
       visible="true"
       enabled="true"
       snapvisiblegridlinesonly="true" />
  </sodipodi:namedview>
  <metadata
     id="metadata7">
    <rdf:RDF>
      <cc:Work
         rdf:about="">
        <dc:format>image/svg+xml</dc:format>
        <dc:type
           rdf:resource="http://purl.org/dc/dcmitype/StillImage" />
        <dc:title />
      </cc:Work>
    </rdf:RDF>
  </metadata>
  <g
     inkscape:label="Layer 1"
     inkscape:groupmode="layer"
     id="layer1"
     transform="translate(0,-28.3622)">
    <path
       style="fill:#ffffff;fill-opacity:1;fill-rule:nonzero;stroke:none"
       d="m 788.30068,581.82296 c 90.54739,0 164.39324,-73.84874 164.39324,-164.40344 0,-76.77125 -53.2377,-140.85878 -124.48275,-158.69046 C 823.33279,223.26054 810.45599,188.26611 788.30068,157.04498 742.37431,92.338311 669.17949,58.408979 595.39998,60.117028 551.1323,61.134496 505.94328,74.370247 467.11622,101.92633 411.95494,141.07938 379.48388,200.26142 372.09128,262.52616 338.81441,231.92201 294.48514,212.62474 245.708,213.11183 143.9001,214.1293 62.253084,297.55306 63.26002,399.36703 c 1.006861,101.8118 84.44105,183.46041 186.24901,182.45593"
       id="path5318"
       inkscape:connector-curvature="0"
       sodipodi:nodetypes="cscssccssc" />
    <path
       inkscape:connector-curvature="0"
       id="path3016"
       d="m 694.61235,669.72358 c -24.49634,18.26681 -55.39169,39.45614 -66.85747,44.64522 -11.74441,5.31898 -23.64745,11.36318 -30.60264,23.41044 -13.91036,24.09236 -5.65559,54.90001 18.43726,68.81118 24.09277,13.91118 54.90014,5.65886 68.81054,-18.43566 6.95519,-12.04943 6.24089,-25.38043 4.97362,-38.20919 -1.2385,-12.52785 1.66692,-49.88194 5.23869,-80.22199 z"
       style="fill:#ffffff;fill-opacity:1;fill-rule:nonzero;stroke:none" />
    <path
       style="fill:#ffffff;fill-opacity:1;fill-rule:nonzero;stroke:none"
       d="m 505.56636,669.72358 c -24.49629,18.26681 -55.39168,39.45614 -66.85747,44.64522 -11.7444,5.31898 -23.64744,11.36318 -30.60262,23.41044 -13.91035,24.09236 -5.65561,54.90001 18.43722,68.81118 24.09279,13.91118 54.90018,5.65886 68.81058,-18.43566 6.95518,-12.04943 6.24089,-25.38043 4.97358,-38.20919 -1.2385,-12.52785 1.66692,-49.88194 5.23871,-80.22199 z"
       id="path3032"
       inkscape:connector-curvature="0" />
    <path
       inkscape:connector-curvature="0"
       id="path3034"
       d="m 316.52037,669.72358 c -24.49629,18.26681 -55.39168,39.45614 -66.85745,44.64522 -11.74444,5.31898 -23.64742,11.36318 -30.60264,23.41044 -13.91036,24.09236 -5.65558,54.90001 18.43725,68.81118 24.09277,13.91118 54.90016,5.65886 68.81055,-18.43566 6.9552,-12.04943 6.2409,-25.38043 4.97361,-38.20919 -1.2385,-12.52785 1.66691,-49.88194 5.23868,-80.22199 z"
       style="fill:#ffffff;fill-opacity:1;fill-rule:nonzero;stroke:none" />
    <path
       style="fill:#ffffff;fill-opacity:1;fill-rule:nonzero;stroke:none"
       d="m 595.79746,883.15169 c -24.49635,18.26897 -55.39168,39.4583 -66.85749,44.64522 -11.7444,5.31681 -23.64742,11.36318 -30.60262,23.4126 -13.91039,24.09452 -5.65561,54.90219 18.43725,68.81119 24.09277,13.9112 54.90016,5.6567 68.81051,-18.4357 6.95524,-12.0516 6.24094,-25.3826 4.97365,-38.21133 -1.2385,-12.52785 1.66691,-49.88194 5.2387,-80.22198 z"
       id="path3038"
       inkscape:connector-curvature="0" />
    <path
       inkscape:connector-curvature="0"
       id="path3040"
       d="m 406.75148,883.15169 c -24.49634,18.26897 -55.39168,39.4583 -66.85752,44.64522 -11.74438,5.31681 -23.64739,11.36318 -30.60257,23.4126 -13.9104,24.09452 -5.65561,54.90219 18.43722,68.81119 24.09279,13.9112 54.90018,5.6567 68.81058,-18.4357 6.95516,-12.0516 6.24085,-25.3826 4.97358,-38.21133 -1.2385,-12.52785 1.66692,-49.88194 5.23871,-80.22198 z"
       style="fill:#ffffff;fill-opacity:1;fill-rule:nonzero;stroke:none" />
    <path
       style="fill:#ffffff;fill-opacity:1;fill-rule:nonzero;stroke:none"
       d="m 217.70547,883.15169 c -24.49631,18.26897 -55.39168,39.4583 -66.85745,44.64522 -11.74443,5.31681 -23.64742,11.36318 -30.60263,23.4126 -13.91037,24.09452 -5.65561,54.90219 18.43725,68.81119 24.09277,13.9112 54.90015,5.6567 68.81055,-18.4357 6.95517,-12.0516 6.24088,-25.3826 4.97362,-38.21133 -1.2385,-12.52785 1.66691,-49.88194 5.23866,-80.22198 z"
       id="path3042"
       inkscape:connector-curvature="0" />
  </g>
</svg>
