<?xml version="1.0" encoding="UTF-8" standalone="no"?>
<!-- Created with Inkscape (http://www.inkscape.org/) -->

<svg
   xmlns:dc="http://purl.org/dc/elements/1.1/"
   xmlns:cc="http://creativecommons.org/ns#"
   xmlns:rdf="http://www.w3.org/1999/02/22-rdf-syntax-ns#"
   xmlns:svg="http://www.w3.org/2000/svg"
   xmlns="http://www.w3.org/2000/svg"
   xmlns:sodipodi="http://sodipodi.sourceforge.net/DTD/sodipodi-0.dtd"
   xmlns:inkscape="http://www.inkscape.org/namespaces/inkscape"
   width="1024"
   height="1024"
   id="svg2"
   version="1.1"
   inkscape:version="0.48.2 r9819"
   sodipodi:docname="icon_weather_hard_cloud.svg">
  <defs
     id="defs4" />
  <sodipodi:namedview
     id="base"
     pagecolor="#ffffff"
     bordercolor="#666666"
     borderopacity="1.0"
     inkscape:pageopacity="0.0"
     inkscape:pageshadow="2"
     inkscape:zoom="0.35355339"
     inkscape:cx="539.71749"
     inkscape:cy="280.81053"
     inkscape:document-units="px"
     inkscape:current-layer="layer1"
     showgrid="false"
     inkscape:window-width="1366"
     inkscape:window-height="706"
     inkscape:window-x="-8"
     inkscape:window-y="-8"
     inkscape:window-maximized="1"
     showguides="true"
     inkscape:guide-bbox="true" />
  <metadata
     id="metadata7">
    <rdf:RDF>
      <cc:Work
         rdf:about="">
        <dc:format>image/svg+xml</dc:format>
        <dc:type
           rdf:resource="http://purl.org/dc/dcmitype/StillImage" />
        <dc:title />
      </cc:Work>
    </rdf:RDF>
  </metadata>
  <g
     inkscape:label="Layer 1"
     inkscape:groupmode="layer"
     id="layer1"
     transform="translate(0,-28.3622)">
    <path
       sodipodi:nodetypes="cscssccssc"
       inkscape:connector-curvature="0"
       id="path2984"
       d="m 894.29185,636.7001 c 68.0833,0 123.60865,-53.53784 123.60865,-119.18233 0,-55.65768 -40.02989,-102.11866 -93.59963,-115.04543 -3.66808,-25.71435 -13.35024,-51.08181 -30.00902,-73.71703 -34.53241,-46.91065 -89.56822,-71.50298 -145.04366,-70.26747 -33.28525,0.74944 -67.26324,10.3337 -96.45762,30.30948 -41.47623,28.38664 -65.8915,71.28671 -71.45007,116.42868 -25.02114,-22.18984 -58.35266,-36.17439 -95.02862,-35.82322 -76.55021,0.72803 -137.94127,61.21638 -137.18415,135.02549 0.75694,73.8091 63.49194,133.002 140.04218,132.27183"
       style="fill:#ffffff;fill-opacity:0.71276592;fill-rule:nonzero;stroke:none" />
    <path
       style="fill:#ffffff;fill-opacity:1;fill-rule:nonzero;stroke:none"
       d="m 551.3279,818.56768 c 68.0833,0 123.60865,-53.5378 123.60865,-119.1823 0,-55.65768 -40.02989,-102.11866 -93.59962,-115.04543 -3.66808,-25.71434 -13.35027,-51.08181 -30.00903,-73.71489 -34.53243,-46.91064 -89.56824,-71.50511 -145.04365,-70.26961 -33.28526,0.74944 -67.26327,10.3337 -96.45763,30.31163 -41.47622,28.38449 -65.89149,71.28456 -71.45006,116.42867 C 213.35542,564.90377 180.02389,550.91922 143.34794,551.27039 66.797728,551.99842 5.4066645,612.48891 6.1637825,686.29588 6.9209094,760.10499 69.655714,819.29788 146.20595,818.56768"
       id="path5318"
       inkscape:connector-curvature="0"
       sodipodi:nodetypes="cscssccssc" />
  </g>
</svg>
