<?xml version="1.0" encoding="UTF-8" standalone="no"?>
<!-- Created with Inkscape (http://www.inkscape.org/) -->

<svg
   xmlns:dc="http://purl.org/dc/elements/1.1/"
   xmlns:cc="http://creativecommons.org/ns#"
   xmlns:rdf="http://www.w3.org/1999/02/22-rdf-syntax-ns#"
   xmlns:svg="http://www.w3.org/2000/svg"
   xmlns="http://www.w3.org/2000/svg"
   xmlns:sodipodi="http://sodipodi.sourceforge.net/DTD/sodipodi-0.dtd"
   xmlns:inkscape="http://www.inkscape.org/namespaces/inkscape"
   width="1024"
   height="1024"
   id="svg2"
   version="1.1"
   inkscape:version="0.48.2 r9819"
   sodipodi:docname="icon_weather_sun_night.svg">
  <defs
     id="defs4" />
  <sodipodi:namedview
     id="base"
     pagecolor="#ffffff"
     bordercolor="#666666"
     borderopacity="1.0"
     inkscape:pageopacity="0.0"
     inkscape:pageshadow="2"
     inkscape:zoom="0.40490814"
     inkscape:cx="440.76836"
     inkscape:cy="395.3918"
     inkscape:document-units="px"
     inkscape:current-layer="layer1"
     showgrid="false"
     inkscape:window-width="1366"
     inkscape:window-height="706"
     inkscape:window-x="-8"
     inkscape:window-y="-8"
     inkscape:window-maximized="1" />
  <metadata
     id="metadata7">
    <rdf:RDF>
      <cc:Work
         rdf:about="">
        <dc:format>image/svg+xml</dc:format>
        <dc:type
           rdf:resource="http://purl.org/dc/dcmitype/StillImage" />
        <dc:title />
      </cc:Work>
    </rdf:RDF>
  </metadata>
  <g
     inkscape:label="Layer 1"
     inkscape:groupmode="layer"
     id="layer1"
     transform="translate(0,-28.3622)">
    <path
       style="fill:#ffffff;fill-opacity:1;fill-rule:nonzero;stroke:none"
       d="m 684.50618,129.98411 c -221.04609,0 -400.25507,179.20834 -400.25507,400.25329 0,221.04495 179.20898,400.25329 400.25507,400.25329 23.88481,0 47.26921,-2.5945 70.0035,-6.5873 C 585.63375,872.54211 462.96584,715.90109 462.96584,530.2374 c 0,-185.66369 122.66791,-342.30471 291.54384,-393.66603 -22.73429,-4.0104 -46.11869,-6.58726 -70.0035,-6.58726 z"
       id="path2987"
       inkscape:connector-curvature="0" />
    <path
       sodipodi:type="star"
       style="fill:#ffffff;fill-opacity:1;fill-rule:nonzero;stroke:none"
       id="path3774"
       sodipodi:sides="5"
       sodipodi:cx="6.6579165"
       sodipodi:cy="13.400663"
       sodipodi:r1="4.1085958"
       sodipodi:r2="2.0542979"
       sodipodi:arg1="1.3089969"
       sodipodi:arg2="1.9373154"
       inkscape:flatsided="false"
       inkscape:rounded="0"
       inkscape:randomized="0"
       d="M 7.7212996,17.369262 5.9217221,15.318516 3.2121582,15.638365 4.606434,13.29315 3.4649378,10.81504 6.126225,11.416364 8.1303055,9.5649587 8.3807957,12.281812 10.760882,13.615691 8.254406,14.693475 z"
       transform="matrix(11.835516,10.817349,-10.817349,11.835516,238.7124,-34.090674)" />
    <path
       transform="matrix(38.963724,-5.2065611,5.2065611,38.963724,532.31565,9.4477191)"
       d="M 7.7212996,17.369262 5.9217221,15.318516 3.2121582,15.638365 4.606434,13.29315 3.4649378,10.81504 6.126225,11.416364 8.1303055,9.5649587 8.3807957,12.281812 10.760882,13.615691 8.254406,14.693475 z"
       inkscape:randomized="0"
       inkscape:rounded="0"
       inkscape:flatsided="false"
       sodipodi:arg2="1.9373154"
       sodipodi:arg1="1.3089969"
       sodipodi:r2="2.0542979"
       sodipodi:r1="4.1085958"
       sodipodi:cy="13.400663"
       sodipodi:cx="6.6579165"
       sodipodi:sides="5"
       id="path3776"
       style="fill:#ffffff;fill-opacity:1;fill-rule:nonzero;stroke:none"
       sodipodi:type="star" />
    <path
       sodipodi:type="star"
       style="fill:#ffffff;fill-opacity:1;fill-rule:nonzero;stroke:none"
       id="path3778"
       sodipodi:sides="5"
       sodipodi:cx="6.6579165"
       sodipodi:cy="13.400663"
       sodipodi:r1="4.1085958"
       sodipodi:r2="2.0542979"
       sodipodi:arg1="1.3089969"
       sodipodi:arg2="1.9373154"
       inkscape:flatsided="false"
       inkscape:rounded="0"
       inkscape:randomized="0"
       d="M 7.7212996,17.369262 5.9217221,15.318516 3.2121582,15.638365 4.606434,13.29315 3.4649378,10.81504 6.126225,11.416364 8.1303055,9.5649587 8.3807957,12.281812 10.760882,13.615691 8.254406,14.693475 z"
       transform="matrix(16.453793,-20.586861,20.586861,16.453793,-274.00654,649.51175)" />
  </g>
</svg>
