<?xml version="1.0" encoding="UTF-8" standalone="no"?>
<!-- Created with Inkscape (http://www.inkscape.org/) -->

<svg
   xmlns:dc="http://purl.org/dc/elements/1.1/"
   xmlns:cc="http://creativecommons.org/ns#"
   xmlns:rdf="http://www.w3.org/1999/02/22-rdf-syntax-ns#"
   xmlns:svg="http://www.w3.org/2000/svg"
   xmlns="http://www.w3.org/2000/svg"
   xmlns:sodipodi="http://sodipodi.sourceforge.net/DTD/sodipodi-0.dtd"
   xmlns:inkscape="http://www.inkscape.org/namespaces/inkscape"
   width="1024"
   height="1024"
   id="svg2"
   version="1.1"
   inkscape:version="0.48.2 r9819"
   sodipodi:docname="icon_weather_sun_cloud_night.svg">
  <defs
     id="defs4" />
  <sodipodi:namedview
     id="base"
     pagecolor="#ffffff"
     bordercolor="#666666"
     borderopacity="1.0"
     inkscape:pageopacity="0.0"
     inkscape:pageshadow="2"
     inkscape:zoom="0.28631329"
     inkscape:cx="696.13445"
     inkscape:cy="377.3126"
     inkscape:document-units="px"
     inkscape:current-layer="layer1"
     showgrid="false"
     inkscape:window-width="1366"
     inkscape:window-height="706"
     inkscape:window-x="-8"
     inkscape:window-y="-8"
     inkscape:window-maximized="1" />
  <metadata
     id="metadata7">
    <rdf:RDF>
      <cc:Work
         rdf:about="">
        <dc:format>image/svg+xml</dc:format>
        <dc:type
           rdf:resource="http://purl.org/dc/dcmitype/StillImage" />
        <dc:title />
      </cc:Work>
    </rdf:RDF>
  </metadata>
  <g
     inkscape:label="Layer 1"
     inkscape:groupmode="layer"
     id="layer1"
     transform="translate(0,-28.3622)">
    <path
       style="fill:#ffffff;fill-opacity:1;fill-rule:nonzero;stroke:none"
       d="m 328.15974,156.16741 c -105.38347,0 -190.82114,85.43475 -190.82114,190.81882 0,105.38407 85.43767,190.82325 190.82114,190.82325 11.38707,0 22.53554,-1.24046 33.37409,-3.14325 -80.51139,-24.48587 -138.9932,-99.16403 -138.9932,-187.68 0,-88.51597 58.48181,-163.19191 138.9932,-187.67778 -10.83855,-1.905 -21.98702,-3.14104 -33.37409,-3.14104 z"
       id="path2987"
       inkscape:connector-curvature="0" />
    <path
       sodipodi:type="star"
       style="fill:#ffffff;fill-opacity:1;fill-rule:nonzero;stroke:none"
       id="path3774"
       sodipodi:sides="5"
       sodipodi:cx="6.6579165"
       sodipodi:cy="13.400663"
       sodipodi:r1="4.1085958"
       sodipodi:r2="2.0542979"
       sodipodi:arg1="1.3089969"
       sodipodi:arg2="1.9373154"
       inkscape:flatsided="false"
       inkscape:rounded="0"
       inkscape:randomized="0"
       d="M 7.7212996,17.369262 5.9217221,15.318516 3.2121582,15.638365 4.606434,13.29315 3.4649378,10.81504 6.126225,11.416364 8.1303055,9.5649587 8.3807957,12.281812 10.760882,13.615691 8.254406,14.693475 z"
       transform="matrix(5.6425688,5.1571588,-5.1571588,5.6425688,115.62808,77.945083)" />
    <path
       transform="matrix(18.575911,-2.482222,2.482222,18.575911,255.6031,98.700703)"
       d="M 7.7212996,17.369262 5.9217221,15.318516 3.2121582,15.638365 4.606434,13.29315 3.4649378,10.81504 6.126225,11.416364 8.1303055,9.5649587 8.3807957,12.281812 10.760882,13.615691 8.254406,14.693475 z"
       inkscape:randomized="0"
       inkscape:rounded="0"
       inkscape:flatsided="false"
       sodipodi:arg2="1.9373154"
       sodipodi:arg1="1.3089969"
       sodipodi:r2="2.0542979"
       sodipodi:r1="4.1085958"
       sodipodi:cy="13.400663"
       sodipodi:cx="6.6579165"
       sodipodi:sides="5"
       id="path3776"
       style="fill:#ffffff;fill-opacity:1;fill-rule:nonzero;stroke:none"
       sodipodi:type="star" />
    <path
       sodipodi:type="star"
       style="fill:#ffffff;fill-opacity:1;fill-rule:nonzero;stroke:none"
       id="path3778"
       sodipodi:sides="5"
       sodipodi:cx="6.6579165"
       sodipodi:cy="13.400663"
       sodipodi:r1="4.1085958"
       sodipodi:r2="2.0542979"
       sodipodi:arg1="1.3089969"
       sodipodi:arg2="1.9373154"
       inkscape:flatsided="false"
       inkscape:rounded="0"
       inkscape:randomized="0"
       d="M 7.7212996,17.369262 5.9217221,15.318516 3.2121582,15.638365 4.606434,13.29315 3.4649378,10.81504 6.126225,11.416364 8.1303055,9.5649587 8.3807957,12.281812 10.760882,13.615691 8.254406,14.693475 z"
       transform="matrix(7.8443267,-9.8147625,9.8147625,7.8443267,-128.81009,403.85043)" />
    <path
       style="fill:#ffffff;fill-opacity:1;fill-rule:nonzero;stroke:none"
       d="m 858.44434,883.31643 c 87.73388,0 159.28526,-71.55267 159.28526,-159.28892 0,-74.39019 -51.58354,-136.48871 -120.61488,-153.76439 -4.72676,-34.3675 -17.20346,-68.27426 -38.67038,-98.52386 -44.49937,-62.69881 -115.41991,-95.56668 -186.90697,-93.91642 -42.89221,1.01895 -86.67714,13.81124 -124.29776,40.51223 -53.44732,37.93383 -84.90943,95.27428 -92.07238,155.60957 -32.2429,-29.65595 -75.19474,-48.34709 -122.45629,-47.88191 -98.64456,0.97465 -177.75465,81.82189 -176.77901,180.4698 0.97564,98.64791 81.81732,177.7607 180.4619,176.7839"
       id="path5318"
       inkscape:connector-curvature="0"
       sodipodi:nodetypes="cscssccssc" />
  </g>
</svg>
